<?xml version="1.0" encoding="iso-8859-1"?>
<!-- Generator: Adobe Illustrator 16.0.0, SVG Export Plug-In . SVG Version: 6.00 Build 0)  -->
<!DOCTYPE svg PUBLIC "-//W3C//DTD SVG 1.1//EN" "http://www.w3.org/Graphics/SVG/1.1/DTD/svg11.dtd">
<svg version="1.1" id="Layer_1" xmlns="http://www.w3.org/2000/svg" xmlns:xlink="http://www.w3.org/1999/xlink" x="0px" y="0px"
	 width="360px" height="360px" viewBox="0 0 360 360" style="enable-background:new 0 0 360 360;" xml:space="preserve">
<path style="display:none;fill:#DEDDDD;" d="M356.392,270.062v-90.467h0.29v-1h-0.29V88.128c-0.001-23.05-9.254-44.03-24.21-59.451
	v-1.668h24.21v-1h-23.504l22.566-22.567l-0.707-0.707L332.182,25.3V3.233h-1v22.776h-1.706
	c-15.341-14.49-35.982-23.419-58.623-23.42H87.339c-22.64,0.001-43.282,8.93-58.623,23.419h-1.708V3.233h-1V25.3L3.443,2.735
	L2.736,3.442l22.566,22.566H3.233v1h22.776v1.669C11.053,44.099,1.801,65.078,1.8,88.128v181.934
	c0.001,23.049,9.253,44.029,24.209,59.45v1.669H3.233v1h22.07L2.736,354.747l0.707,0.707l22.565-22.565v22.067h1v-22.775h1.707
	c15.341,14.49,35.983,23.419,58.624,23.42h183.513c22.64-0.001,43.281-8.93,58.622-23.42h1.707v22.775h1v-22.067l22.565,22.565
	l0.707-0.707l-22.566-22.566h23.794v-1h-24.5v-1.668C347.138,314.091,356.391,293.111,356.392,270.062z M355.392,270.062
	c0,22.406-8.851,42.831-23.21,58.002v-85.72h22.848v-1h-22.848v-61.749h23.21V270.062z M242.052,241.344l-0.687-0.687
	c1.14-1.153,2.247-2.339,3.322-3.554v4.24H242.052z M244.688,242.344v1.636l-1.636-1.636H244.688z M114.078,241.344v-3.593
	c0.894,0.99,1.811,1.958,2.748,2.906l-0.687,0.687H114.078z M115.139,242.344l-1.061,1.062v-1.062H115.139z M116.139,116.845
	l0.688,0.688c-0.938,0.948-1.854,1.917-2.748,2.906v-3.594H116.139z M114.078,115.845v-1.061l1.061,1.061H114.078z M244.688,116.845
	v4.241c-1.075-1.215-2.183-2.401-3.323-3.554l0.688-0.687H244.688z M243.052,115.845l1.636-1.636v1.636H243.052z M244.688,178.595
	h-2.354c-0.133-17.088-7.038-32.557-18.168-43.863l16.492-16.493c1.392,1.408,2.737,2.861,4.03,4.361V178.595z M245.688,123.782
	c12.375,14.882,19.853,33.973,19.97,54.813h-19.97V123.782z M223.458,135.439c10.95,11.126,17.742,26.343,17.875,43.156h-61.031
	L223.458,135.439z M179.596,177.887v-61.029c16.813,0.133,32.028,6.925,43.155,17.875L179.596,177.887z M178.596,177.888
	l-43.157-43.157c11.126-10.949,26.343-17.741,43.157-17.874V177.888z M177.889,178.595h-61.031
	c0.133-16.813,6.925-32.03,17.875-43.157L177.889,178.595z M177.888,179.595l-43.155,43.155
	c-10.95-11.126-17.742-26.343-17.875-43.155H177.888z M178.596,180.301v61.03c-16.813-0.132-32.03-6.925-43.156-17.874
	L178.596,180.301z M179.596,180.302l43.154,43.155c-11.126,10.948-26.342,17.74-43.154,17.874V180.302z M180.303,179.595h61.03
	c-0.133,16.813-6.926,32.028-17.876,43.155L180.303,179.595z M239.95,117.532l-16.492,16.493
	c-8.903-8.763-20.39-14.897-33.213-17.18h49.002C239.482,117.073,239.718,117.301,239.95,117.532z M179.596,115.845V92.533
	c22.652,0.128,43.237,8.955,58.598,23.312H179.596z M178.596,115.845h-58.598c15.359-14.357,35.944-23.184,58.598-23.312V115.845z
	 M167.943,116.845c-12.823,2.282-24.309,8.417-33.211,17.18l-16.492-16.492c0.233-0.23,0.468-0.459,0.704-0.688H167.943z
	 M117.533,118.239l16.492,16.492c-11.13,11.306-18.035,26.776-18.167,43.864h-1.779v-56.65
	C115.194,120.676,116.346,119.44,117.533,118.239z M113.078,178.595H92.534c0.12-21.159,7.829-40.514,20.544-55.492V178.595z
	 M113.078,179.595v55.491c-12.716-14.978-20.425-34.332-20.544-55.491H113.078z M114.078,179.595h1.779
	c0.133,17.088,7.038,32.557,18.168,43.862l-16.492,16.493c-1.188-1.201-2.339-2.438-3.455-3.706V179.595z M118.24,240.657
	l16.492-16.493c8.902,8.764,20.387,14.897,33.21,17.18h-48.999C118.708,241.116,118.473,240.888,118.24,240.657z M178.596,242.344
	v23.313c-22.654-0.129-43.239-8.956-58.599-23.313H178.596z M179.596,242.344h58.599c-15.36,14.357-35.945,23.185-58.599,23.313
	V242.344z M190.245,241.344c12.824-2.282,24.31-8.417,33.212-17.18l16.493,16.493c-0.232,0.23-0.467,0.459-0.703,0.687H190.245z
	 M240.657,239.95l-16.492-16.493c11.13-11.306,18.035-26.775,18.168-43.862h2.354v55.994
	C243.395,237.089,242.049,238.542,240.657,239.95z M245.688,179.595h19.97c-0.117,20.84-7.595,39.931-19.97,54.812V179.595z
	 M266.657,178.595c-0.12-21.509-7.994-41.179-20.97-56.361v-5.389h52.884c9.648,18.48,15.137,39.476,15.219,61.75H266.657z
	 M245.688,115.845v-2.636l29.005-29.005c9.242,9.311,17.129,19.964,23.352,31.641H245.688z M245.688,111.795V61.984
	c10.373,5.911,19.883,13.16,28.298,21.513L245.688,111.795z M244.688,112.795l-3.05,3.05h-1.983
	c-15.616-14.955-36.76-24.181-60.059-24.312V44.399c23.628,0.086,45.817,6.258,65.092,17.025V112.795z M178.596,91.533
	c-23.299,0.131-44.442,9.357-60.059,24.312h-1.984l-2.475-2.475V61.104c19.141-10.569,41.124-16.619,64.518-16.704V91.533z
	 M113.078,112.37L84.205,83.497c8.57-8.506,18.278-15.864,28.874-21.834V112.37z M113.078,113.784v2.061H60.146
	c6.222-11.677,14.109-22.33,23.351-31.641L113.078,113.784z M113.078,116.845v4.721c-13.318,15.271-21.422,35.204-21.544,57.029
	H44.401c0.081-22.274,5.569-43.27,15.218-61.75H113.078z M91.534,179.595c0.123,21.825,8.226,41.759,21.544,57.029v4.72H59.619
	c-9.649-18.48-15.137-39.476-15.218-61.749H91.534z M113.078,242.344v2.062l-29.58,29.58c-9.242-9.312-17.129-19.965-23.352-31.642
	H113.078z M113.078,245.819v50.707c-10.596-5.97-20.303-13.328-28.873-21.834L113.078,245.819z M114.078,244.819l2.475-2.476h1.983
	c15.616,14.956,36.76,24.183,60.06,24.313v47.133c-23.394-0.086-45.377-6.135-64.518-16.705V244.819z M179.596,266.657
	c23.299-0.131,44.443-9.357,60.06-24.313h1.982l3.05,3.05v51.37c-19.274,10.769-41.464,16.94-65.092,17.026V266.657z
	 M245.688,246.395l28.298,28.298c-8.415,8.353-17.926,15.602-28.298,21.513V246.395z M245.688,244.98v-2.637h52.356
	c-6.223,11.677-14.109,22.33-23.352,31.642L245.688,244.98z M245.688,241.344v-5.388c12.976-15.183,20.85-34.853,20.97-56.361
	h47.133c-0.082,22.273-5.57,43.269-15.219,61.749H245.688z M314.79,179.595h16.392v61.749h-31.479
	C309.273,222.837,314.709,201.848,314.79,179.595z M314.79,178.595c-0.081-22.254-5.517-43.244-15.088-61.75h31.479v61.75H314.79z
	 M299.174,115.845c-6.307-11.949-14.339-22.844-23.774-32.348l55.115-55.115c0.014,0.014,0.029,0.027,0.043,0.041
	c0.213,0.213,0.413,0.439,0.624,0.654v86.768H299.174z M329.791,27.691L274.692,82.79c-8.61-8.548-18.362-15.945-29.005-21.951
	v-33.83l83.388,0C329.313,27.236,329.555,27.461,329.791,27.691z M244.688,60.279c-19.306-10.681-41.487-16.794-65.092-16.88V27.008
	h65.092V60.279z M179.596,26.008V3.588h65.092v22.42H179.596z M178.596,26.008h-64.518V3.588h64.518V26.008z M178.596,27.008v16.391
	c-23.371,0.085-45.348,6.075-64.518,16.559v-32.95H178.596z M113.078,60.518c-10.866,6.063-20.815,13.571-29.58,22.272L28.4,27.691
	c0.236-0.23,0.478-0.456,0.717-0.684l83.961,0V60.518z M27.634,28.422c0.014-0.014,0.028-0.027,0.042-0.041l55.115,55.115
	c-9.435,9.504-17.468,20.399-23.774,32.348H27.009V29.078C27.22,28.862,27.42,28.636,27.634,28.422z M58.489,116.845
	c-9.571,18.506-15.007,39.496-15.088,61.75H27.009v-61.75H58.489z M43.401,179.595c0.081,22.253,5.517,43.242,15.087,61.749H27.009
	v-61.749H43.401z M59.016,242.344c6.307,11.948,14.339,22.844,23.775,32.349l-55.115,55.114c-0.014-0.014-0.029-0.026-0.042-0.04
	c-0.213-0.214-0.414-0.439-0.625-0.655v-86.768H59.016z M28.4,330.497l55.098-55.098c8.765,8.701,18.714,16.21,29.58,22.272v33.509
	H29.117C28.878,330.953,28.636,330.728,28.4,330.497z M114.078,298.23c19.17,10.484,41.147,16.475,64.518,16.56v16.391h-64.518
	V298.23z M178.596,332.181v22.42h-64.518v-22.42H178.596z M179.596,332.181h65.092v22.42h-65.092V332.181z M179.596,331.181V314.79
	c23.604-0.086,45.786-6.2,65.092-16.881v33.271H179.596z M245.688,297.351c10.643-6.006,20.395-13.403,29.005-21.951l55.099,55.099
	c-0.236,0.23-0.478,0.455-0.716,0.683h-83.388V297.351z M330.558,329.767c-0.014,0.014-0.029,0.027-0.043,0.041l-55.115-55.115
	c9.436-9.505,17.469-20.399,23.775-32.349h32.007v86.769C330.971,329.327,330.771,329.554,330.558,329.767z M355.392,88.128v90.467
	h-23.21v-61.75h22.848v-1h-22.848V30.125C346.541,45.296,355.392,65.721,355.392,88.128z M328.026,26.009l-82.339,0V3.588h25.165
	C292.85,3.588,312.944,12.11,328.026,26.009z M87.339,3.588h25.739v22.42l-82.913,0C45.247,12.11,65.342,3.588,87.339,3.588z
	 M2.8,270.062V88.128c0-22.406,8.85-42.831,23.209-58.001v85.718H3.162v1h22.847v61.75H3.09v1h22.919v61.749H3.162v1h22.847v85.719
	C11.649,312.892,2.8,292.468,2.8,270.062z M30.165,332.181h82.913v22.42H87.339C65.342,354.601,45.247,346.078,30.165,332.181z
	 M270.853,354.601h-25.165v-22.42h82.339C312.943,346.078,292.85,354.601,270.853,354.601z"/>
<g id="user" style="display:none;">
	<path style="display:inline;fill:none;stroke:#000000;stroke-width:5;stroke-miterlimit:10;" d="M61.834,241.549
		c0-45.181,52.905-81.808,118.167-81.808s118.167,36.626,118.167,81.808"/>
	
		<circle style="display:inline;fill:none;stroke:#000000;stroke-width:5;stroke-miterlimit:10;" cx="179.068" cy="89.667" r="42.754"/>
	
		<line style="display:inline;fill:none;stroke:#000000;stroke-width:5;stroke-miterlimit:10;" x1="60.334" y1="239.167" x2="299.514" y2="239.167"/>
</g>
<path id="login" style="fill:none;stroke:#000000;stroke-width:5;stroke-miterlimit:10;" d="M242.331,56.29v246.38
	c0,6.62-5.37,12-12,12h-36.87c-6.63,0-12-5.38-12-12V196.05l-34.04,35.03V193.5h-99.8v-29.99h99.8v-37.64l34.04,35.04V56.29
	c0-6.63,5.37-12,12-12h36.87C236.961,44.29,242.331,49.66,242.331,56.29z"/>
<path id="logout" style="display:none;fill:none;stroke:#000000;stroke-width:5;stroke-miterlimit:10;" d="M265.251,230.83V193.5
	h-87.92v109.17c0,6.62-5.37,12-12,12h-36.87c-6.63,0-12-5.38-12-12V56.29c0-6.63,5.37-12,12-12h36.87c6.63,0,12,5.37,12,12v107.22
	h87.92v-37.63l45.94,52.47L265.251,230.83z"/>
</svg>
